<?xml version="1.0" encoding="utf-8"?>
<!-- Generator: Adobe Illustrator 23.0.3, SVG Export Plug-In . SVG Version: 6.00 Build 0)  -->
<svg version="1.1" id="b53a807e-26bd-423b-9266-af2eb023e0f0"
	 xmlns="http://www.w3.org/2000/svg" xmlns:xlink="http://www.w3.org/1999/xlink" x="0px" y="0px" viewBox="0 0 924.2 818.9"
	 style="enable-background:new 0 0 924.2 818.9;" xml:space="preserve">
<style type="text/css">
	.st0{opacity:0.65;fill:#006600;}
	.st1{fill:#FEF3FF;}
	.st2{fill:url(#SVGID_1_);}
	.st3{fill:url(#SVGID_2_);}
	.st4{fill:url(#SVGID_3_);}
	.st5{fill:url(#SVGID_4_);}
	.st6{opacity:0.18;fill:url(#SVGID_5_);}
	.st7{fill:#9C7A9E;}
	.st8{fill:url(#SVGID_6_);}
	.st9{opacity:0.18;fill:url(#SVGID_7_);}
	.st10{fill:url(#SVGID_8_);}
	.st11{fill:#006600;}
	.st12{fill:url(#SVGID_9_);}
	.st13{fill:url(#SVGID_10_);}
	.st14{fill:#6B423F;}
	.st15{fill:url(#SVGID_11_);}
	.st16{fill:url(#SVGID_12_);}
	.st17{fill:url(#SVGID_13_);}
	.st18{fill:url(#SVGID_14_);}
	.st19{fill:url(#SVGID_15_);}
	.st20{fill:#E67924;}
	.st21{fill:#3A3535;}
	.st22{fill:url(#SVGID_16_);}
	.st23{fill:url(#SVGID_17_);}
	.st24{fill:url(#SVGID_18_);}
	.st25{fill:#9F85A0;}
	.st26{fill:url(#SVGID_19_);}
	.st27{fill:url(#SVGID_20_);}
	.st28{fill:url(#SVGID_21_);}
	.st29{fill:url(#SVGID_22_);}
	.st30{fill:#E02D43;}
	.st31{fill:url(#SVGID_23_);}
	.st32{fill:url(#SVGID_24_);}
	.st33{fill:url(#SVGID_25_);}
	.st34{fill:url(#SVGID_26_);}
	.st35{fill:url(#SVGID_27_);}
	.st36{fill:#865093;}
	.st37{fill:url(#SVGID_28_);}
	.st38{fill:url(#SVGID_29_);}
	.st39{opacity:0.24;fill:#E291D8;}
	.st40{fill:url(#SVGID_30_);}
	.st41{fill:url(#SVGID_31_);}
	.st42{fill:url(#SVGID_32_);}
	.st43{fill:url(#SVGID_33_);}
	.st44{opacity:0.5;fill:#FCA547;}
	.st45{fill:url(#SVGID_34_);}
</style>
<title>mobile testing</title>
<g>
	<g>
		<g>
			<path class="st0" d="M127.2,419.5h121l27.7,15.7l-15.4-29.6v-71.1c0-1.9-1.5-3.5-3.5-3.5H127.2c-1.9,0-3.5,1.5-3.5,3.5v81.6
				C123.7,418,125.3,419.5,127.2,419.5z"/>
			<g>
				<g>
					<path class="st1" d="M216.6,373.5h13.5c0.2,0,0.4-0.2,0.4-0.4v-1.8c0-0.2-0.2-0.4-0.4-0.4h-13.5c-0.2,0-0.4,0.2-0.4,0.4v1.8
						C216.2,373.3,216.4,373.5,216.6,373.5z"/>
					<path class="st1" d="M220.1,384.5h6.5c0.2,0,0.3-0.1,0.3-0.3v-2c0-0.2-0.1-0.3-0.3-0.3h-6.5c-0.2,0-0.3,0.1-0.3,0.3v2
						C219.9,384.4,220,384.5,220.1,384.5z"/>
					<path class="st1" d="M213.3,379h20.2c0.2,0,0.4-0.2,0.4-0.4v-1.8c0-0.2-0.2-0.4-0.4-0.4h-20.2c-0.2,0-0.4,0.2-0.4,0.4v1.8
						C212.9,378.8,213,379,213.3,379z"/>
				</g>
				<path class="st1" d="M213.7,400.5c2.9,1.1,6,1.8,9.3,1.8c13.9,0,25.2-11.3,25.2-25.2c0-13.9-11.3-25.2-25.2-25.2
					c-1.3,0-2.5,0.1-3.7,0.3l2.2,9c0.5-0.1,1-0.1,1.6-0.1c8.8,0,16,7.2,16,16s-7.2,16-16,16c-1.7,0-3.3-0.3-4.8-0.7L213.7,400.5z"/>
				
					<linearGradient id="SVGID_1_" gradientUnits="userSpaceOnUse" x1="-5823.9409" y1="901.5461" x2="-5860.9014" y2="722.024" gradientTransform="matrix(-1 0 0 1 -5722.6348 0)">
					<stop  offset="0" style="stop-color:#F9A458"/>
					<stop  offset="1" style="stop-color:#FFDE77"/>
				</linearGradient>
				<path class="st2" d="M197.8,377c0,10.6,6.6,19.7,15.9,23.4l4.5-8.2c-6.5-2-11.2-8.1-11.2-15.2c0-8.3,6.3-15.1,14.4-15.9l-2.2-9
					C207.1,353.9,197.8,364.4,197.8,377z"/>
			</g>
			<linearGradient id="SVGID_2_" gradientUnits="userSpaceOnUse" x1="139.1894" y1="356.8494" x2="188.6262" y2="356.8494">
				<stop  offset="0" style="stop-color:#F9A458"/>
				<stop  offset="1" style="stop-color:#FFDE77"/>
			</linearGradient>
			<polygon class="st3" points="139.2,361.7 188.6,361.7 188.6,352 139.2,352 			"/>
			<linearGradient id="SVGID_3_" gradientUnits="userSpaceOnUse" x1="139.1894" y1="376.2711" x2="188.6262" y2="376.2711">
				<stop  offset="0" style="stop-color:#F9A458"/>
				<stop  offset="1" style="stop-color:#FFDE77"/>
			</linearGradient>
			<polygon class="st4" points="139.2,381.1 188.6,381.1 188.6,371.4 139.2,371.4 			"/>
			<linearGradient id="SVGID_4_" gradientUnits="userSpaceOnUse" x1="139.1894" y1="395.6926" x2="188.6262" y2="395.6926">
				<stop  offset="0" style="stop-color:#F9A458"/>
				<stop  offset="1" style="stop-color:#FFDE77"/>
			</linearGradient>
			<polygon class="st5" points="139.2,400.5 188.6,400.5 188.6,390.8 139.2,390.8 			"/>
		</g>
		<g>
			
				<radialGradient id="SVGID_5_" cx="678.7786" cy="726.9236" r="82.5488" gradientTransform="matrix(1 0 0 0.512 0 354.7206)" gradientUnits="userSpaceOnUse">
				<stop  offset="0" style="stop-color:#32133D"/>
				<stop  offset="1" style="stop-color:#32133D;stop-opacity:0"/>
			</radialGradient>
			<path class="st6" d="M729.6,768H578.1c-6.9,0-11-7.6-7.1-13.2l42.3-60.1c3.9-5.5,10.3-8.8,17.1-8.8h149c6.9,0,11,7.6,7.1,13.2
				L744,760.5C740.8,765.2,735.4,768,729.6,768z"/>
			<path class="st7" d="M729.3,708.7H577.2c-7,0-11.1-8.3-7.1-14.4l42.5-65.5c3.9-6,10.3-9.6,17.2-9.6l142.8,0.4
				c9.9,0,15.9,11,10.6,19.4l-39.3,61.5C740.6,705.6,735.1,708.7,729.3,708.7z"/>
			<linearGradient id="SVGID_6_" gradientUnits="userSpaceOnUse" x1="742.4456" y1="735.0891" x2="637.9551" y2="618.9885">
				<stop  offset="0" style="stop-color:#D8A4D8"/>
				<stop  offset="1" style="stop-color:#F2CEF3"/>
			</linearGradient>
			<path class="st8" d="M725.3,701.8H577c-6.8,0-10.8-7.6-7-13.2l41.4-60.1c3.8-5.5,10.1-8.8,16.8-8.8h145.9c6.8,0,10.8,7.6,7,13.2
				l-41.7,61.5C736.2,699,730.9,701.8,725.3,701.8z"/>
		</g>
		<g>
			
				<radialGradient id="SVGID_7_" cx="379.8436" cy="726.9236" r="82.5489" gradientTransform="matrix(1 0 0 0.5723 0 310.9045)" gradientUnits="userSpaceOnUse">
				<stop  offset="0" style="stop-color:#32133D"/>
				<stop  offset="1" style="stop-color:#32133D;stop-opacity:0"/>
			</radialGradient>
			<path class="st9" d="M430.6,768H279.2c-6.9,0-11-7.6-7.1-13.2l42.3-60.1c3.9-5.5,10.3-8.8,17.1-8.8h149c6.9,0,11,7.6,7.1,13.2
				l-42.5,61.5C441.8,765.2,436.4,768,430.6,768z"/>
			<path class="st7" d="M430.4,708.7H278.3c-7,0-11.1-8.3-7.1-14.4l42.5-65.5c3.9-6,10.3-9.6,17.2-9.6l142.8,0.4
				c9.9,0,15.9,11,10.6,19.4l-39.3,61.5C441.6,705.6,436.2,708.7,430.4,708.7z"/>
			<linearGradient id="SVGID_8_" gradientUnits="userSpaceOnUse" x1="444.7348" y1="743.8476" x2="339.5209" y2="615.5184">
				<stop  offset="0" style="stop-color:#D8A4D8"/>
				<stop  offset="1" style="stop-color:#F2CEF3"/>
			</linearGradient>
			<path class="st10" d="M426.3,701.8H278c-6.8,0-10.8-7.6-7-13.2l41.4-60.1c3.8-5.5,10.1-8.8,16.8-8.8h145.9c6.8,0,10.8,7.6,7,13.2
				l-41.7,61.5C437.3,699,432,701.8,426.3,701.8z"/>
		</g>
		<g>
			<path class="st11" d="M425.9,361c-22.7,4.2-42.8-21.4-62.2-46.1c-15.7-19.9-31.9-40.6-44.5-38.2c-28.7,5.3-36.9,54.3-37,54.8
				l-8.8-0.8c0.4-2.3,9.3-55.3,44.4-61.8c18.3-3.4,35.3,18.3,53.3,41.2c17,21.7,36.3,46.2,53.4,43.1c16.9-3.2,25.6-80.2,31.9-136.4
				c8.2-73.4,13.7-115.1,29.9-118.1c17.1-3.2,36.8,16.1,57.7,36.6c17.5,17.1,37.3,36.6,49.5,34.3c12-2.2,22.1-30.6,31.1-55.7
				c10.7-29.9,20.8-58.1,38.1-61.3c32.1-6,59.1,37.7,60.2,39.6l-7.9,4c-0.2-0.4-25.1-40.7-50.9-35.9c-12,2.2-22.1,30.6-31.1,55.7
				c-10.7,29.9-20.8,58.1-38.1,61.3c-17.1,3.2-36.8-16.1-57.7-36.6c-17.5-17.1-37.3-36.6-49.5-34.3c-0.6,0.1-6.2,2-12.2,33.2
				c-4,20.9-7.1,48.5-10.4,77.7C455.5,304,448,356.9,425.9,361z"/>
			<linearGradient id="SVGID_9_" gradientUnits="userSpaceOnUse" x1="460.0518" y1="-63.2042" x2="204.4362" y2="500.2686">
				<stop  offset="0" style="stop-color:#EF97D8"/>
				<stop  offset="1" style="stop-color:#E045B8;stop-opacity:0"/>
			</linearGradient>
			<path class="st12" d="M293.5,333.6c1.3,7.1-4.2,14.1-12.3,15.6c-8.1,1.5-15.7-3-17.1-10.2c-1.3-7.1,4.2-14.1,12.3-15.6
				C284.5,321.9,292.1,326.5,293.5,333.6z"/>
			<linearGradient id="SVGID_10_" gradientUnits="userSpaceOnUse" x1="736.7065" y1="62.2979" x2="481.0913" y2="625.7696">
				<stop  offset="0" style="stop-color:#EF97D8"/>
				<stop  offset="1" style="stop-color:#E045B8;stop-opacity:0"/>
			</linearGradient>
			<path class="st13" d="M734.6,96.6c1.3,7.1-4.2,14.1-12.3,15.6c-8.1,1.5-15.7-3-17.1-10.2c-1.3-7.1,4.2-14.1,12.3-15.6
				C725.6,84.9,733.2,89.5,734.6,96.6z"/>
		</g>
		<g>
			<path class="st14" d="M641,239.2c0,0-10.8-7.9-11.8-15.7c-1-7.9,5.9-7.9,5.9-7.9s-3.9-4.9,0-11.8c3.9-6.9,36.4-15.7,48.2-2
				c11.8,13.8-3.9,47.2-2,55.1C683.3,264.7,641,239.2,641,239.2z"/>
			<linearGradient id="SVGID_11_" gradientUnits="userSpaceOnUse" x1="648.5637" y1="637.1393" x2="670.5463" y2="637.1393">
				<stop  offset="0" style="stop-color:#FEE3D1"/>
				<stop  offset="1" style="stop-color:#FAABA8"/>
			</linearGradient>
			<path class="st15" d="M649.9,630.5c0,0,2,3.9-1,9.8s13.8,6.9,13.8,6.9l7.9-5.9c0,0-3.9-2.9-3-10.8
				C668.6,622.7,649.9,630.5,649.9,630.5z"/>
			<linearGradient id="SVGID_12_" gradientUnits="userSpaceOnUse" x1="628.9833" y1="656.8124" x2="675.4628" y2="656.8124">
				<stop  offset="0" style="stop-color:#FF6554"/>
				<stop  offset="1" style="stop-color:#E73D4F"/>
			</linearGradient>
			<path class="st16" d="M675.5,654.1c0,0-3-16.7-6.9-15.7c-3.9,1-10.8,4.9-10.8,4.9s-1-8.9-8.9-5.9s-6.5,16-12.8,21.6
				c-9.8,8.8-9.8,18.7,2,17.7c11.8-1,17.7-3.9,25.6-11.8C671.5,657.1,674.5,658.1,675.5,654.1z"/>
			<linearGradient id="SVGID_13_" gradientUnits="userSpaceOnUse" x1="696.7473" y1="637.1393" x2="718.7299" y2="637.1393">
				<stop  offset="0" style="stop-color:#FEE3D1"/>
				<stop  offset="1" style="stop-color:#FAABA8"/>
			</linearGradient>
			<path class="st17" d="M698.1,630.5c0,0,2,3.9-1,9.8s13.8,6.9,13.8,6.9l7.9-5.9c0,0-3.9-2.9-3-10.8
				C716.8,622.7,698.1,630.5,698.1,630.5z"/>
			<linearGradient id="SVGID_14_" gradientUnits="userSpaceOnUse" x1="632.196" y1="513.5665" x2="685.623" y2="513.5665">
				<stop  offset="0" style="stop-color:#D763BF"/>
				<stop  offset="1" style="stop-color:#8E4597"/>
			</linearGradient>
			<path class="st18" d="M632.2,483c0,0,6.9,65.9,9.8,100.3s4.9,49.2,4.9,49.2s13.8,6.9,27.5,0c0,0,1-44.3,0-68.8
				c-1-24.6,11.1-68.9,11.1-68.9l-11.1-103.2L643,406.3L632.2,483z"/>
			<linearGradient id="SVGID_15_" gradientUnits="userSpaceOnUse" x1="666.6128" y1="520.45" x2="721.8405" y2="520.45">
				<stop  offset="0" style="stop-color:#D763BF"/>
				<stop  offset="1" style="stop-color:#8E4597"/>
			</linearGradient>
			<path class="st19" d="M666.6,414.2c0,0,8.2,73.7,12.8,109.2c4.9,38.4,14.8,109.2,14.8,109.2s10.8,6.9,26.6,0c0,0,2-53.1,0-85.6
				c-2-32.5,2-52.1,1-79.7c-1-27.5-5.9-62-5.9-62L666.6,414.2z"/>
			<path class="st20" d="M646.9,414.2c0,0,21.6,15.7,44.3,2c22.6-13.8,0-142.2,0-142.2l-33.4,2.5L646.9,414.2z"/>
			<path class="st21" d="M603.7,320.8l-7.4-20.4c-0.3-0.8,0-1.6,0.7-2l0,0c0.9-0.6,2.2-0.2,2.6,0.8l8.1,21.6H603.7z"/>
			<linearGradient id="SVGID_16_" gradientUnits="userSpaceOnUse" x1="626.5312" y1="398.1997" x2="607.4984" y2="366.4784">
				<stop  offset="0" style="stop-color:#D8A4D8"/>
				<stop  offset="1" style="stop-color:#F6EBF7"/>
			</linearGradient>
			<path class="st22" d="M621.4,387.6c0,0-6.9,5.9-13.8,3c-6.9-3-7.9-18.8,0-38.4C615.5,332.6,621.4,387.6,621.4,387.6z"/>
			<linearGradient id="SVGID_17_" gradientUnits="userSpaceOnUse" x1="606.6609" y1="392.3798" x2="652.7689" y2="386.3329">
				<stop  offset="0" style="stop-color:#D8A4D8"/>
				<stop  offset="1" style="stop-color:#F6EBF7"/>
			</linearGradient>
			<path class="st23" d="M657.8,268.7c0,0-9.8,4.9-15.7,6.9c-5.9,2-13.8,9.8-16.7,19.7c-3,9.8-1,118-1,146.5c0,28.5-3,40.3-1,45.2
				c2,4.9,22.6,14.8,34.4,15.7c0,0,0-66.9,0-89.5s4.2-103.9,4.9-119L657.8,268.7z"/>
			<linearGradient id="SVGID_18_" gradientUnits="userSpaceOnUse" x1="741.9481" y1="385.3125" x2="678.9879" y2="383.345">
				<stop  offset="0" style="stop-color:#D8A4D8"/>
				<stop  offset="1" style="stop-color:#F6EBF7"/>
			</linearGradient>
			<path class="st24" d="M730,277.6c0,0-2.4-5-12.2-8c-9.8-3-22.6-4.9-22.6-4.9l-20.7,30.5c0,0,9.8,77.7,8.8,121.9
				c-1,44.3,3,85.6,3,85.6s39.3-1,55.1-40.3c0,0-9.8-43.3-14.8-70.8c-4.9-27.5-6.9-40.3-6.9-40.3L730,277.6z"/>
			<path class="st25" d="M666.6,278.5c0,0-6.9,4.9-8.9-1c-2-5.9-2-11.8-1-12.8C657.8,263.7,670.5,262.8,666.6,278.5z"/>
			<linearGradient id="SVGID_19_" gradientUnits="userSpaceOnUse" x1="675.4071" y1="269.7296" x2="677.4803" y2="290.8765">
				<stop  offset="0" style="stop-color:#FAABA8"/>
				<stop  offset="1" style="stop-color:#FEE3D1"/>
			</linearGradient>
			<path class="st26" d="M678.4,239.2c0,0,2,12.8,9.8,22.6c0,0-6.8,22.6-16.7,22.6c-11.8,0-4.9-12.8-9.8-20.7
				C656.8,255.9,678.4,239.2,678.4,239.2z"/>
			<linearGradient id="SVGID_20_" gradientUnits="userSpaceOnUse" x1="686.4099" y1="267.592" x2="660.702" y2="238.567">
				<stop  offset="0" style="stop-color:#FAABA8"/>
				<stop  offset="1" style="stop-color:#FEE3D1"/>
			</linearGradient>
			<path class="st27" d="M636.6,224.9c0,0,10.8,40.3,20.7,44.3c9.8,3.9,24.1-15.2,21.1-30c0,0,5.9-2,3.9-9.8c-2-7.9-6.9-5.9-7.9,2
				c0,0-9.8-4.9-8.9-15.7c0,0-3,1-12.8,7.9C643,230.3,636.6,224.9,636.6,224.9z"/>
			<linearGradient id="SVGID_21_" gradientUnits="userSpaceOnUse" x1="695.2091" y1="257.5706" x2="672.8184" y2="285.3518">
				<stop  offset="0" style="stop-color:#EACFEB"/>
				<stop  offset="1" style="stop-color:#FEF0FF"/>
			</linearGradient>
			<path class="st28" d="M695.1,263.7c0,0-5.9-6.9-8.9-7.9c-3-1,1,3.9-14.8,24.6c0,0,2,8.9,3,14.8
				C674.5,295.2,689.2,284.4,695.1,263.7z"/>
			<linearGradient id="SVGID_22_" gradientUnits="userSpaceOnUse" x1="651.3212" y1="270.0499" x2="665.4192" y2="290.3675">
				<stop  offset="0" style="stop-color:#EACFEB"/>
				<stop  offset="1" style="stop-color:#FEF0FF"/>
			</linearGradient>
			<path class="st29" d="M662.7,294.2c0,0,0-9.8,2-15.7c0,0-2,1-5.9-3.9c-1.3-1.7-3-5.9-3-5.9s-2.4,3.2-3,7.9
				C651.9,284.4,659.7,293.2,662.7,294.2z"/>
			<path class="st30" d="M596,322.7l25.6,64.9c0.5,1.1,1.7,1.8,2.9,1.6l42.1-7.9c1.6-0.3,2.5-1.9,1.9-3.5L643.8,313
				c-0.4-1.2-1.7-1.8-2.9-1.6l-43,7.9C596.3,319.5,595.4,321.2,596,322.7z"/>
			<linearGradient id="SVGID_23_" gradientUnits="userSpaceOnUse" x1="650.3048" y1="361.4573" x2="642.8412" y2="334.9202">
				<stop  offset="0" style="stop-color:#FAABA8"/>
				<stop  offset="1" style="stop-color:#FEE3D1"/>
			</linearGradient>
			<path class="st31" d="M664.6,338.5l-9.8-3.9c0,0-5.4-12.5-7.6-12.6c-2.2-0.2,0.7,9.7-0.2,10.7c-1,1-23.6-2-24.6,1
				c-1,3,3.9,15.7,12.8,16.7c8.9,1,14.8,0,14.8,0l11.8,3L664.6,338.5z"/>
			<linearGradient id="SVGID_24_" gradientUnits="userSpaceOnUse" x1="733.1923" y1="344.4854" x2="684.6788" y2="314.6309">
				<stop  offset="0" style="stop-color:#EACFEB"/>
				<stop  offset="1" style="stop-color:#FEF0FF"/>
			</linearGradient>
			<path class="st32" d="M733.5,284.4c-2.1-9.5-9.8-12.8-16.7,2c-6.9,14.8-2,57-5.9,59c-3.9,2-46.2-12.8-46.2-12.8
				s-4.9,14.8-6.9,30.5c0,0,62.9,17.7,69.8,7.9C734.5,361.1,742.3,324.7,733.5,284.4z"/>
			<linearGradient id="SVGID_25_" gradientUnits="userSpaceOnUse" x1="677.1669" y1="656.8124" x2="723.6464" y2="656.8124">
				<stop  offset="0" style="stop-color:#FF6554"/>
				<stop  offset="1" style="stop-color:#E73D4F"/>
			</linearGradient>
			<path class="st33" d="M723.6,654.1c0,0-3-16.7-6.9-15.7c-3.9,1-10.8,4.9-10.8,4.9s-1-8.9-8.9-5.9s-6.5,16-12.8,21.6
				c-9.8,8.8-9.8,18.7,2,17.7c11.8-1,17.7-3.9,25.6-11.8C719.7,657.1,722.7,658.1,723.6,654.1z"/>
		</g>
		<linearGradient id="SVGID_26_" gradientUnits="userSpaceOnUse" x1="678.77" y1="711.4039" x2="676.9044" y2="448.3254">
			<stop  offset="0" style="stop-color:#EF97D8"/>
			<stop  offset="1" style="stop-color:#E045B8;stop-opacity:0"/>
		</linearGradient>
		<path class="st34" d="M763.6,405.6c-1.8-26-42.2-44.3-90.2-41c-48,3.3-85.5,27.1-83.7,53.1c0.1,1,34.2,241.9,34.3,242.1
			c1.7,15.4,25.9,26.2,54.6,24.2c27.5-1.9,49.3-14.9,50.7-29.6C729.4,654.3,763.9,410.1,763.6,405.6z"/>
		<g>
			<linearGradient id="SVGID_27_" gradientUnits="userSpaceOnUse" x1="373.4809" y1="565.0562" x2="380.9368" y2="730.5795">
				<stop  offset="0" style="stop-color:#FFB8FF"/>
				<stop  offset="1" style="stop-color:#F4A9FF;stop-opacity:0.5"/>
			</linearGradient>
			<path class="st35" d="M354.8,567.1c0,0-12.2,21.6-11.6,33.7c0.6,12.1,32.1,65.1,32.1,65.1c6-21.2,12.2-41.5,19.2-52.5l3.6,6
				c0,0,9-19.9,8.4-26.6c-0.6-6.6-9.3-27.4-9.3-27.4L354.8,567.1z"/>
			<path class="st20" d="M343.4,543.9l-43.3,22c-1.5,0.8-3.2,0.3-4.2-0.8c-0.6-0.7-0.9-1.6-0.8-2.6l7.7-73.6
				c0.4-3.8,1.6-7.5,3.5-10.7c1.9-3.2,4.5-6.1,7.7-8.3c4.8-3.4,7.6-8.9,7.4-14.8l-0.1-3.9l-0.9-28.9l13.6,22.1L343.4,543.9z"/>
			<path class="st20" d="M402.4,543.8l43.4,21.8c1.5,0.8,3.2,0.3,4.1-0.9c0.6-0.7,0.9-1.6,0.8-2.6l-8-73.6
				c-0.4-3.8-1.7-7.5-3.6-10.7c-1.9-3.2-4.5-6-7.7-8.2c-4.8-3.3-7.7-8.9-7.5-14.8l0.1-3.9l0.8-28.9l-13.5,22.1L402.4,543.8z"/>
			<path class="st36" d="M406.5,567.2c-21.9,11.2-43.9,11.3-65.8,0.1l2-4.9l7.3-18.4l47.2-0.1l7.4,18.4L406.5,567.2z"/>
			
				<linearGradient id="SVGID_28_" gradientUnits="userSpaceOnUse" x1="717.835" y1="-1199.9285" x2="710.0358" y2="-1175.3312" gradientTransform="matrix(0.9303 -0.3668 0.3668 0.9303 144.5322 1922.1332)">
				<stop  offset="0" style="stop-color:#D8A4D8"/>
				<stop  offset="1" style="stop-color:#F6EBF7"/>
			</linearGradient>
			<path class="st37" d="M404.5,562.3c-20.6,9.9-41.2,10-61.9,0.1l7.3-18.4l47.2-0.1L404.5,562.3z"/>
			
				<linearGradient id="SVGID_29_" gradientUnits="userSpaceOnUse" x1="815.6399" y1="-1279.2413" x2="718.8932" y2="-1316.6177" gradientTransform="matrix(0.9303 -0.3668 0.3668 0.9303 144.5322 1922.1332)">
				<stop  offset="0" style="stop-color:#D8A4D8"/>
				<stop  offset="1" style="stop-color:#F6EBF7"/>
			</linearGradient>
			<path class="st38" d="M428.5,399.6c-6.7,38.1-24.1,138.3-24.1,138.3c-1.4,7.9-6.9,14.4-14.5,17c-11.4,4-22.8,4-34.2,0
				c-6.5-2.3-11.4-7.5-13.5-14c-0.3-0.9-0.5-1.9-0.7-2.8c0,0-19-104.7-25.6-140.8c-0.4-2.3-0.6-4.6-0.6-6.9c0-5.8,1.3-11.6,3.9-16.9
				c9.9-20,31.1-59.2,48.9-64.4c1.3-0.4,2.6-0.6,3.8-0.6c17.8,0,40.9,40.3,52.2,62.4c3,5.9,4.7,12.3,4.9,18.9
				C429.3,393.2,429.1,396.4,428.5,399.6z"/>
			<path class="st20" d="M429.2,389.9c-10.9,4.4-21.6,7.6-32.1,9.7c-29.3,5.9-56.5,2.9-81.8-9.1c0-5.8,1.3-11.6,3.9-16.9
				c9.9-20,31.1-59.2,48.9-64.4c1.3-0.4,2.6-0.6,3.8-0.6c17.8,0,40.9,40.3,52.2,62.4C427.3,377,428.9,383.4,429.2,389.9z"/>
			<path class="st39" d="M428.5,399.6c-6.7,38.1-24.1,138.3-24.1,138.3c-1.4,7.9-6.9,14.4-14.5,17c-11.4,4-22.9,4-34.2,0
				c-6.5-2.3-11.4-7.5-13.5-14c14.6,5.4,37.2,7,45.4-29.1c7.4-32.5,10.8-75.3,9.5-112.3c10.4-2.1,21.1-5.3,32.1-9.7
				C429.3,393.2,429.1,396.4,428.5,399.6z"/>
			<g>
				
					<ellipse transform="matrix(1 -2.014017e-03 2.014017e-03 1 -0.9079 0.7503)" class="st36" cx="372.1" cy="451.2" rx="25.6" ry="34.7"/>
				
					<linearGradient id="SVGID_30_" gradientUnits="userSpaceOnUse" x1="1110.7894" y1="-636.3953" x2="1075.991" y2="-707.792" gradientTransform="matrix(0.7956 -0.4243 0.3144 1.0776 -275.2836 1653.2422)">
					<stop  offset="0" style="stop-color:#634CA1"/>
					<stop  offset="1" style="stop-color:#B879EE"/>
				</linearGradient>
				<path class="st40" d="M393.1,451.1c0,3.8-0.5,7.5-1.5,10.8c-1,3.2-2.3,6.1-4,8.5c-0.8,1.1-1.6,2.2-2.5,3.1c-3.6,3.8-8,6-12.9,6
					c-0.6,0-1.1,0-1.7-0.1c-10.8-1.1-19.4-13.4-19.4-28.3c0-3.9,0.6-7.7,1.6-11.1v0c2-6.5,5.8-11.8,10.5-14.8c1-0.6,2.1-1.2,3.2-1.6
					c1.8-0.7,3.6-1,5.6-1c0.6,0,1.3,0,1.9,0.1C384.7,424.1,393.1,436.3,393.1,451.1z"/>
				
					<linearGradient id="SVGID_31_" gradientUnits="userSpaceOnUse" x1="1072.5836" y1="-725.9988" x2="1084.8831" y2="-660.9016" gradientTransform="matrix(0.7956 -0.4243 0.3144 1.0776 -275.2836 1653.2422)">
					<stop  offset="0" style="stop-color:#E8F0F1"/>
					<stop  offset="0.9879" style="stop-color:#E8EDEF;stop-opacity:0.1"/>
				</linearGradient>
				<path class="st41" d="M385,473.6c-3.6,3.8-8,6-12.9,6c-0.6,0-1.1,0-1.7-0.1l-17.8-39.4v0c2-6.5,5.8-11.8,10.5-14.8L385,473.6z"
					/>
				
					<linearGradient id="SVGID_32_" gradientUnits="userSpaceOnUse" x1="1088.6923" y1="-729.0422" x2="1100.9917" y2="-663.9453" gradientTransform="matrix(0.7956 -0.4243 0.3144 1.0776 -275.2836 1653.2422)">
					<stop  offset="0" style="stop-color:#E8F0F1"/>
					<stop  offset="0.9879" style="stop-color:#E8EDEF;stop-opacity:0.1"/>
				</linearGradient>
				<path class="st42" d="M391.6,461.9c-1,3.2-2.3,6.1-4,8.5l-21.1-46.7c1.8-0.7,3.6-1,5.6-1c0.6,0,1.3,0,1.9,0.1L391.6,461.9z"/>
			</g>
			
				<linearGradient id="SVGID_33_" gradientUnits="userSpaceOnUse" x1="700.0957" y1="-1195.5884" x2="735.0614" y2="-1195.5884" gradientTransform="matrix(0.9303 -0.3668 0.3668 0.9303 144.5322 1922.1332)">
				<stop  offset="0" style="stop-color:#F9A458"/>
				<stop  offset="1" style="stop-color:#FFDE77"/>
			</linearGradient>
			<path class="st43" d="M373.2,586.2L373.2,586.2c-2.1,0-3.8-1.5-4.2-3.6c-3.4-22.6-4.5-46-1.7-70c0.3-2.9,2.8-5,5.7-5.1l0,0
				c3,0,5.5,2.3,5.7,5.3c1.9,24.5,0.8,47.7-1.4,69.5C377.2,584.6,375.4,586.2,373.2,586.2z"/>
			<path class="st44" d="M429.2,389.9c-10.9,4.4-21.6,7.6-32.1,9.7c-0.9-25.6-4.1-48.4-9.8-63.2c-5.7-14.9-12.8-22.9-19.1-27.2
				c1.3-0.4,2.6-0.6,3.8-0.6c17.8,0,40.9,40.3,52.2,62.4C427.3,377,429,383.4,429.2,389.9z"/>
		</g>
		<g>
			<path class="st11" d="M362.6,118H261.8c-5.5,0-10-4.5-10-10l0,0c0-5.5,4.5-10,10-10h100.8c5.5,0,10,4.5,10,10l0,0
				C372.5,113.6,368.1,118,362.6,118z"/>
			<path class="st11" d="M362.6,162.8H261.8c-5.5,0-10-4.5-10-10l0,0c0-5.5,4.5-10,10-10h100.8c5.5,0,10,4.5,10,10l0,0
				C372.5,158.4,368.1,162.8,362.6,162.8z"/>
			<path class="st11" d="M368.2,207.6H256.2c-2.4,0-4.4-2-4.4-4.4v-11.2c0-2.4,2-4.4,4.4-4.4h111.9c2.4,0,4.4,2,4.4,4.4v11.2
				C372.5,205.7,370.6,207.6,368.2,207.6z"/>
		</g>
		<linearGradient id="SVGID_34_" gradientUnits="userSpaceOnUse" x1="376.8506" y1="684.2029" x2="376.8506" y2="364.1854">
			<stop  offset="0" style="stop-color:#EF97D8"/>
			<stop  offset="1" style="stop-color:#E045B8;stop-opacity:0"/>
		</linearGradient>
		<path class="st45" d="M463.8,405.6c-1.8-26-42.2-44.3-90.2-41c-48,3.3-85.5,27.1-83.7,53.1c0.1,1,34.2,241.9,34.3,242.1
			c1.7,15.4,25.9,26.2,54.6,24.2c27.5-1.9,49.3-14.9,50.7-29.6C429.6,654.3,464.1,410.1,463.8,405.6z"/>
	</g>
</g>
</svg>
